inDegrees=no
num_controls=7
num_derivatives=13
num_iterations=140
num_multipliers=7
num_parameters=0
num_slacks=7
num_states=26
objective=0.190989
objective_accelerations=0.000000
objective_balance=0.003037
objective_effort=0.042019
objective_height=0.145934
objective_ligament=0.000000
solver_duration=1839.588217
status=Solve_Succeeded
success=true
DataType=double
version=3
OpenSimVersion=4.5
endheader
time	/jointset/ground_pelvis/pelvis_tilt/value	/jointset/ground_pelvis/pelvis_tx/value	/jointset/ground_pelvis/pelvis_ty/value	/jointset/hip_l/hip_flexion_l/value	/jointset/hip_l/hip_adduction_l/value	/jointset/hip_l/hip_rotation_l/value	/jointset/back/lumbar_extension/value	/jointset/patellofemoral_l/patellar_flexion_l/value	/jointset/knee_l/knee_flexion_l/value	/jointset/knee_l/knee_adduction_l/value	/jointset/knee_l/knee_rotation_l/value	/jointset/ankle_l/ankle_angle_l/value	/jointset/subtalar_l/subtalar_angle_l/value	/jointset/ground_pelvis/pelvis_tilt/speed	/jointset/ground_pelvis/pelvis_tx/speed	/jointset/ground_pelvis/pelvis_ty/speed	/jointset/hip_l/hip_flexion_l/speed	/jointset/hip_l/hip_adduction_l/speed	/jointset/hip_l/hip_rotation_l/speed	/jointset/back/lumbar_extension/speed	/jointset/patellofemoral_l/patellar_flexion_l/speed	/jointset/knee_l/knee_flexion_l/speed	/jointset/knee_l/knee_adduction_l/speed	/jointset/knee_l/knee_rotation_l/speed	/jointset/ankle_l/ankle_angle_l/speed	/jointset/subtalar_l/subtalar_angle_l/speed	/forceset/tau_hip_flexion_l	/forceset/tau_hip_adduction_l	/forceset/tau_hip_rotation_l	/forceset/tau_knee_flexion_l	/forceset/tau_ankle_angle_l	/forceset/tau_subtalar_angle_l	/forceset/tau_lumbar_extension	lambda_cid13_p0	lambda_cid13_p1	lambda_cid13_p2	lambda_cid13_p3	lambda_cid13_p4	lambda_cid13_p5	lambda_cid14_p0	/jointset/ground_pelvis/pelvis_tilt/accel	/jointset/ground_pelvis/pelvis_tx/accel	/jointset/ground_pelvis/pelvis_ty/accel	/jointset/hip_l/hip_flexion_l/accel	/jointset/hip_l/hip_adduction_l/accel	/jointset/hip_l/hip_rotation_l/accel	/jointset/back/lumbar_extension/accel	/jointset/patellofemoral_l/patellar_flexion_l/accel	/jointset/knee_l/knee_flexion_l/accel	/jointset/knee_l/knee_adduction_l/accel	/jointset/knee_l/knee_rotation_l/accel	/jointset/ankle_l/ankle_angle_l/accel	/jointset/subtalar_l/subtalar_angle_l/accel	gamma_cid13_p0	gamma_cid13_p1	gamma_cid13_p2	gamma_cid13_p3	gamma_cid13_p4	gamma_cid13_p5	gamma_cid14_p0
0.5	-0.2133143573449524	-0.00348167462703964	0.3409981959289503	2.181654763657659	-0.4681562517554901	0.2099271216818167	-0.2617886913071918	2.167092700780192	2.167092700780221	0.1745070482420024	-0.1744650967735311	0.4363270117255721	0.1404441036216448	0.1664042907730977	0.01025349437084528	-0.04155259736577328	-0.0003441711919867509	0.02288355327501833	0.1133327910564753	0.0004871179829027297	0.1409765516589188	0.140976551658886	-0.0005593435200770497	0.002321087545283407	-0.0004860571032712912	0.03654309799500101	-0.08525683576384037	-0.04158749166390194	-0.05854878181363302	-0.4510606220940779	0.0998671852784884	0.01567143010682001	0.1106384689667113	-3.29190889093109	-0.3306739699303852	-7.021319850012439	-9.8046870202277	-556.8919113168485	-53.41422046316524	-0.02001757655192681	-0.836737656973497	-0.008332381370279158	0.2334778388470362	0.04303777070809992	-0.6355750822018476	-1.272299852532156	-0.06820922597540986	-0.7431872756998903	-0.7431872756999172	0.2211035539058881	-0.7858726124621188	-0.06124512493731317	-1.121669983208907	2.606596598057e-08	4.753536065636883e-09	3.30337677697169e-09	6.921435856881508e-10	1.781979810574094e-09	-5.043347753803524e-08	1.856412050215753e-08
0.51	-0.2116930420019432	-0.003379961691231107	0.3405942016573293	2.181652817731529	-0.4679522721020943	0.2110055952911346	-0.2617867599248334	2.168465294854792	2.16846529485481	0.1745100349685587	-0.1744705640463527	0.436320430201814	0.1407663821178275	0.1577395818020616	0.01004729137123046	-0.03926356916449288	-7.394498531763209e-05	0.01860136518258059	0.1032856549551741	-2.371432001659892e-05	0.1335350156167796	0.1335350156167699	0.000858131458439338	-0.002395694626843911	-0.0007093868210167867	0.02918787120703872	-0.08478759235390233	-0.04136526671630586	-0.05842569942662384	-0.4514748355936732	0.09943491896473446	0.01599712461782016	0.1102330990121768	-3.415188304443837	-0.5230572129085961	-6.907813987024345	-9.378054507821489	-556.636403223003	-54.38236548869109	-0.02005070016015941	-0.8992113258290086	-0.03303278131409866	0.2240214858204994	0.01468114469384496	-0.2211971602419092	-0.7323540295235879	-0.03095115443382359	-0.7457283939564734	-0.7457283939530084	0.05729024313850458	-0.1617445087502013	0.01526061844203018	-0.351168232633176	2.508743650888174e-08	1.374110074942886e-08	2.349162711174655e-08	6.869613320428858e-09	9.747948618905288e-09	-3.635796220754009e-08	1.767219427217297e-08
0.52	-0.2101619485103766	-0.003281564489830144	0.3402125789027316	2.18165270728724	-0.4677704456271184	0.2120113108313207	-0.2617876230498759	2.169763255243874	2.16976325524388	0.1745182405995571	-0.1744926318387239	0.4363152428835596	0.141053364504922	0.1483599204846115	0.009590347489331436	-0.03707829396113139	2.292518325322434e-05	0.0184529175910556	0.09878117723009353	-7.17835022814835e-05	0.1260498145552188	0.126049814555232	0.0004844373695154714	-0.0009990163654579687	-0.0002072159933535555	0.02948387617734522	-0.08431834894396431	-0.04114304176870981	-0.05830261703961544	-0.4518890490932684	0.09900265265098078	0.01632281912882041	0.1098277290576422	-3.538086453931948	-0.7158846209573219	-6.793806339564378	-8.945013911334957	-556.380049346233	-55.3353184432675	-0.02008600153661726	-0.9797281262563678	-0.05848055782708905	0.212727239263242	0.008366563088500638	0.1911730179806707	-0.1637681772880168	0.02434339815537628	-0.7519202795842053	-0.7519202795842665	-0.1371302595821527	0.4368194742405123	0.08385498414451245	0.4085763684448737	3.864510329356616e-09	-3.50270600807548e-09	-1.813030538616041e-08	3.668544267566388e-09	-9.23856478377222e-10	-5.46969585626732e-08	8.130696233235185e-09
0.53	-0.2087261416341553	-0.003188442755850023	0.3398525874114312	2.181653009186526	-0.4675803215235458	0.2129854671134702	-0.2617877353640657	2.170986118918049	2.17098611891805	0.1745179766286013	-0.1744865718289305	0.4363165509176353	0.1413611952000654	0.138893475323621	0.009047308565315817	-0.0349072141490154	4.228760105058801e-05	0.01916646800431195	0.09550245104363558	1.605029567577568e-05	0.1185164071054387	0.1185164071054478	-0.0003710609556170747	0.001610555004716969	0.0003740804238158927	0.03131033000196492	-0.0843370403761713	-0.0411204311241968	-0.05836236620009554	-0.4520923215069682	0.09886083458215858	0.01596459938788757	0.1099842818582158	-3.646804786388637	-0.4775753535351796	-6.904558560536366	-8.63293628948985	-556.7160207662291	-55.07626499610279	-0.02011433579375288	-0.9162998631049948	-0.05021877345837845	0.2212155688250931	-0.0005543408784247244	-0.04936280862936379	-0.4920710691345019	-0.00398718489012048	-0.7550285776338234	-0.7550285776343937	-0.03483091972275407	0.082946216948728	0.03105349321447903	-0.04610304730579949	-3.626349918392994e-09	-8.20134163262694e-09	-2.868036804873568e-08	2.94163454367197e-09	-3.308103332713396e-09	-5.67050147704027e-08	4.338688319131903e-09
0.54	-0.2073822386399608	-0.003100352053864003	0.3395146901615798	2.181653649625572	-0.4673952236881661	0.2139104068877934	-0.261787967451364	2.172133452997735	2.172133452997731	0.174514143414247	-0.1744724320557257	0.4363208292203991	0.1416641338460997	0.1299791440792475	0.008584141090511267	-0.03265944567132204	9.063313869703191e-05	0.01744766395246903	0.08893787566478489	-9.57381266066614e-05	0.110943895657302	0.1109438956573076	-0.0002294113105075287	0.0006169363166016472	0.0003868377494380825	0.02850546635553195	-0.08435573180837831	-0.04109782047968388	-0.05842211536057527	-0.4522955939206677	0.09871901651333657	0.01560637964695465	0.1101408346587894	-3.755671358895488	-0.2382869811444418	-7.016555531127921	-8.315460077456223	-557.0508672418972	-54.80734211439121	-0.02014451240638985	-0.8693053429329659	-0.04250626798487513	0.228064972378714	0.01416318705831918	-0.2952978750391833	-0.8209380157665658	-0.01558104589256788	-0.7597410792555359	-0.7597410792554836	0.06229933446626573	-0.2838185374175392	-0.02985283416493787	-0.5176871257656585	4.07571384348154e-09	9.797865494930426e-10	-4.853042808390415e-09	4.95209258799756e-09	3.476863188125209e-09	-4.064479677249395e-08	6.907818415483896e-09
0.55	-0.2061258955967865	-0.003016802531916158	0.3391994964557147	2.181654753103203	-0.4672334800764031	0.214760914736722	-0.2617896660646301	2.173204850635643	2.173204850635645	0.1745145298593505	-0.1744771686753575	0.4363235488082835	0.1419270640561835	0.1212615179127382	0.008107889743095429	-0.03038254228517894	0.0001176799381428553	0.01509997885447498	0.08141273296383776	-0.0002103186564161242	0.1033255061825453	0.1033255061825496	0.0002276176350543725	-0.001267786696112597	0.0001781632831436493	0.02443673527753286	-0.08429273531112567	-0.04098694354796358	-0.05838127932709131	-0.4524812737425386	0.09823510855550439	0.01565707248175367	0.1101159393080461	-3.928836041925369	-0.2467785268366547	-6.996017200330892	-7.906057520433427	-557.0822448966118	-55.20706009187335	-0.02017143946153707	-0.8771817177953898	-0.05286439181825846	0.2270174397696704	-0.004880362312167937	-0.1746660719763044	-0.680943521695094	-0.004346675944582854	-0.7644084047312216	-0.7644084047314564	0.02554530740214121	-0.09632710716804796	-0.01321020600088932	-0.2980442842621107	6.745168844117247e-09	5.176033914432443e-09	6.414194725106936e-09	5.245912387871669e-09	6.341675800222219e-09	-2.670525022722397e-08	6.874144731249783e-09
0.5600000000000001	-0.2049575669081345	-0.002938551488182158	0.3389069746673187	2.181655755891082	-0.4670892457645794	0.2155436429337539	-0.2617915005070727	2.174199760274174	2.174199760274182	0.1745171147204685	-0.174491858109909	0.4363248145608686	0.1421599913183983	0.1123762731748112	0.007524445447741997	-0.02812506217752938	7.049518959334158e-05	0.01394580396460946	0.07538194528543836	-0.0001229039630020774	0.09564629578196888	0.09564629578197158	0.0002102718926558164	-0.001373626667613985	9.607069128108253e-05	0.02250487678173059	-0.08422973881387306	-0.04087606661624332	-0.05834044329360746	-0.4526669535644093	0.09775120059767238	0.01570776531655273	0.1100910439573027	-4.101854730284726	-0.2553571107719864	-6.975394798079461	-7.488860323900378	-557.1131348040777	-55.59292306255538	-0.02020048837539295	-0.9028290572164754	-0.06394485757241022	0.2241803166800084	-0.0006831225407716738	-0.0565958334134642	-0.5220670112570197	0.02481799875218089	-0.7719052644195044	-0.7719052644194919	-0.03257560312583116	0.07195807082504273	-0.004536459278604963	-0.09031260932630435	3.37549333126656e-09	3.390424298755344e-09	2.609327010387271e-09	3.479766294404071e-09	4.502303721829469e-09	-1.53105094251204e-08	3.717106510312446e-09
